<svg xmlns="http://www.w3.org/2000/svg" version="1.1" xmlns:xlink="http://www.w3.org/1999/xlink" xmlns:svgjs="http://svgjs.dev/svgjs" width="100%" height="100%" viewBox="0 0 1000 600"><rect width="1000" height="600" x="0" y="0" fill="#628a60"/><g><circle r="166.66666666666666" cx="493.0705362955729" cy="391.77418988774593" fill="#dff2e8" transform="matrix(0.6161114961250859,0,0,0.6161114961250859,-29.21438317300992,58.62338339279198)"/><path d="M326.26791581001396 366.40754479095835L326.26791581001396 316.7742012538902L340.9940457784973 316.7742012538902L340.9940457784973 429.5997031160813L326.26791581001396 429.5997031160813L326.26791581001396 380.14594652984835L265.02876557522336 380.14594652984835L265.02876557522336 429.5997031160813L250.30263560674 429.5997031160813L250.30263560674 316.7742012538902L265.02876557522336 316.7742012538902L265.02876557522336 366.40754479095835L326.26791581001396 366.40754479095835ZM370.895273092552 364.94840081542264L370.895273092552 351.7038631913294Q384.9479519954034 345.55301012522506 401.02098409515054 345.55301012522506Q417.11646456375206 345.55301012522506 425.66929309727664 354.93642830636236Q434.2445699996557 364.2973981186452 434.2445699996557 377.38479716075767L434.2445699996557 377.38479716075767L434.2445699996557 429.5997031160813L421.31430953952395 429.5997031160813L419.5408884000267 419.25100507420507L419.04702428523 419.25100507420507Q407.4187692186532 431.2159856735978 389.1457969711754 431.2159856735978L389.1457969711754 431.2159856735978Q378.1685446013761 431.2159856735978 370.49120245317283 424.5937168615512Q362.8138603049696 417.9714480495045 362.8138603049696 406.4778831960541Q362.8138603049696 395.00676671145806 372.2646235926701 387.8906337846147Q381.7153868803705 380.79694922662577 399.9883591278483 380.79694922662577L399.9883591278483 380.79694922662577L419.5408884000267 380.79694922662577L419.5408884000267 379.49494383307086Q419.5408884000267 368.83196862723304 414.2879700880982 364.1402595366644Q409.03505177616967 359.4485504460958 396.10479131603796 359.4485504460958Q383.17453085590626 359.4485504460958 371.86055295329095 364.94840081542264L371.86055295329095 364.94840081542264L370.895273092552 364.94840081542264ZM419.5408884000267 406.16360603209256L419.5408884000267 406.16360603209256L419.5408884000267 392.5823428751834L401.91891884932636 392.5823428751834Q377.5175419045986 392.5823428751834 377.5175419045986 405.4452582287519Q377.5175419045986 418.28572521346604 394.64564734050225 418.28572521346604L394.64564734050225 418.28572521346604Q401.76178026734556 418.28572521346604 408.3840490793922 414.80622804103473Q415.0063178914388 411.3267308686035 419.5408884000267 406.16360603209256ZM528.8868930897866 419.587730607021Q517.1688445477922 431.2159856735978 501.47743471856984 431.2159856735978Q485.80847325820184 431.2159856735978 474.3373567736058 419.25100507420507L474.3373567736058 419.25100507420507L473.8434926588091 419.25100507420507L473.8434926588091 466.77420193896006L459.13981105918015 466.77420193896006L459.13981105918015 347.1692926827415L472.07007151931185 347.1692926827415L473.8434926588091 357.5179907246178L474.3373567736058 357.5179907246178Q485.80847325820184 345.55301012522506 501.47743471856984 345.55301012522506Q517.1688445477922 345.55301012522506 528.8868930897866 357.18126519180186Q540.6049416317809 368.83196862723304 540.6049416317809 388.38449789941143Q540.6049416317809 407.93702717158976 528.8868930897866 419.587730607021ZM499.3897364151111 359.29141186411505L499.3897364151111 359.29141186411505Q484.84319339746287 359.29141186411505 473.8434926588091 371.4135310454885L473.8434926588091 371.4135310454885L473.8434926588091 405.35546475333433Q484.84319339746287 417.4775839347078 499.3897364151111 417.4775839347078L499.3897364151111 417.4775839347078Q511.3322686456494 417.4775839347078 518.6055401544735 409.8900352619222Q525.8788116632976 402.28003822028217 525.8788116632976 388.38449789941143Q525.8788116632976 374.4889575785407 518.6055401544735 366.87896053690065Q511.3322686456494 359.29141186411505 499.3897364151111 359.29141186411505ZM630.8698327953048 419.587730607021Q619.1517842533103 431.2159856735978 603.4603744240881 431.2159856735978Q587.79141296372 431.2159856735978 576.320296479124 419.25100507420507L576.320296479124 419.25100507420507L575.8264323643273 419.25100507420507L575.8264323643273 466.77420193896006L561.1227507646983 466.77420193896006L561.1227507646983 347.1692926827415L574.05301122483 347.1692926827415L575.8264323643273 357.5179907246178L576.320296479124 357.5179907246178Q587.79141296372 345.55301012522506 603.4603744240881 345.55301012522506Q619.1517842533103 345.55301012522506 630.8698327953048 357.18126519180186Q642.587881337299 368.83196862723304 642.587881337299 388.38449789941143Q642.587881337299 407.93702717158976 630.8698327953048 419.587730607021ZM601.3726761206292 359.29141186411505L601.3726761206292 359.29141186411505Q586.826133102981 359.29141186411505 575.8264323643273 371.4135310454885L575.8264323643273 371.4135310454885L575.8264323643273 405.35546475333433Q586.826133102981 417.4775839347078 601.3726761206292 417.4775839347078L601.3726761206292 417.4775839347078Q613.3376567200219 417.4775839347078 620.610928228846 409.8900352619222Q627.8841997376701 402.28003822028217 627.8841997376701 388.38449789941143Q627.8841997376701 374.4889575785407 620.610928228846 366.87896053690065Q613.3376567200219 359.29141186411505 601.3726761206292 359.29141186411505ZM720.0123055161087 347.1692926827415L735.8384055584575 347.1692926827415L686.2275103902437 466.77420193896006L671.3442418397794 466.77420193896006L685.2622305295047 430.90170850963625L651.1407098708237 347.1692926827415L666.9892582820269 347.1692926827415L692.8497792022904 412.3144590981969L693.5007818990678 412.3144590981969L720.0123055161087 347.1692926827415Z " fill="#434c45" transform="matrix(0.6161114961250859,0,0,0.6161114961250859,-29.21438317300992,58.62338339279198)"/><path d="M828.0748558089549 400.21603733470903L828.0748558089549 400.21603733470903Q828.0748558089549 430.8366958401756 787.9272879598316 430.8366958401756L787.9272879598316 430.8366958401756L743.070518908946 430.8366958401756L743.070518908946 321.7655196187192L786.9941282746897 321.7655196187192Q803.7041970551358 321.7655196187192 812.8404814143146 329.4261095920925Q821.9767657734935 337.0866995654658 821.9767657734935 350.0641296053446L821.9767657734935 350.0641296053446Q821.9767657734935 367.2516289223747 806.9811066471452 373.95735782257964L806.9811066471452 373.95735782257964L806.9811066471452 374.43478835916386Q828.0748558089549 381.1405172593688 828.0748558089549 400.21603733470903ZM757.306629454365 381.7698575121388L757.306629454365 417.5554463679251L786.5166977381056 417.5554463679251Q801.6642665806397 417.5554463679251 808.0010718843932 412.86794655418953Q814.3378771881468 408.18044674045404 814.3378771881468 399.586697081939L814.3378771881468 399.586697081939Q814.3378771881468 381.7698575121388 786.6686074542915 381.7698575121388L786.6686074542915 381.7698575121388L757.306629454365 381.7698575121388ZM757.306629454365 335.0467690909698L757.306629454365 368.96603857647244L783.2397881460961 368.96603857647244Q797.1503778711167 368.96603857647244 802.7710373699939 364.27853876273696Q808.3916968688712 359.5910389490015 808.3916968688712 351.6917337073361Q808.3916968688712 343.81412985369724 802.380412385516 339.4304494723335Q796.3691279021607 335.0467690909698 785.8873574853355 335.0467690909698L785.8873574853355 335.0467690909698L757.306629454365 335.0467690909698ZM849.9498549397206 368.33669832370236L849.9498549397206 355.532879388036Q863.5566252323695 349.5866990687604 879.0948190593815 349.5866990687604Q894.6330128863937 349.5866990687604 902.922943112537 358.6578792638597Q911.2128733386803 367.70735807093234 911.2128733386803 380.35926729041284L911.2128733386803 380.35926729041284L911.2128733386803 430.8366958401756L898.7128738353856 430.8366958401756L896.9767627932614 420.8323559599346L896.5210336447038 420.8323559599346Q885.2580132589227 432.39919577808746 867.6147847933349 432.39919577808746L867.6147847933349 432.39919577808746Q856.9811046603238 432.39919577808746 849.5592299552427 425.99728631025425Q842.1373552501615 419.59537684242105 842.1373552501615 408.4842661728258Q842.1373552501615 397.3948568912571 851.2736396093404 390.51551688683975Q860.4316253565459 383.6578782704489 878.0748538221335 383.6578782704489L878.0748538221335 383.6578782704489L896.9767627932614 383.6578782704489L896.9767627932614 382.3991977649089Q896.9767627932614 372.09103845229606 891.8986379950479 367.5554483547465Q886.8205131968346 363.01985825719686 874.3205136935399 363.01985825719686Q861.8205141902453 363.01985825719686 850.8830146248624 368.33669832370236L850.8830146248624 368.33669832370236L849.9498549397206 368.33669832370236ZM896.9767627932614 408.18044674045404L896.9767627932614 408.18044674045404L896.9767627932614 395.0511069843894L879.9628745804437 395.0511069843894Q856.3517644075538 395.0511069843894 856.3517644075538 407.48600232360434Q856.3517644075538 419.8991962747928 872.9316248598404 419.8991962747928L872.9316248598404 419.8991962747928Q879.7892634762313 419.8991962747928 886.212874332091 416.53548113067706Q892.6147837999242 413.1717659865613 896.9767627932614 408.18044674045404ZM949.9498509660777 361.1535388869133Q961.0392602476466 349.5866990687604 976.2085304782072 349.5866990687604Q991.3560993207414 349.5866990687604 1002.6842238706021 360.82801806651497Q1014.0123484204629 372.09103845229606 1014.0123484204629 390.9929474234239Q1014.0123484204629 409.89485639455177 1002.6842238706021 421.1578767803329Q991.3560993207414 432.39919577808746 976.2085304782072 432.39919577808746Q961.0392602476466 432.39919577808746 949.9498509660777 420.8323559599346L949.9498509660777 420.8323559599346L949.4941218175202 420.8323559599346L947.7580107753959 430.8366958401756L935.2580112721013 430.8366958401756L935.2580112721013 316.774200372612L949.4941218175202 316.774200372612L949.4941218175202 361.1535388869133L949.9498509660777 361.1535388869133ZM974.1686000037112 419.1179463058369L974.1686000037112 419.1179463058369Q985.735439821864 419.1179463058369 992.7666895424672 411.7828771528619Q999.7979392630705 404.42610661186035 999.7979392630705 390.9929474234239Q999.7979392630705 377.5597882349875 992.7666895424672 370.20301769398594Q985.735439821864 362.86794854101095 974.1686000037112 362.86794854101095L974.1686000037112 362.86794854101095Q960.1061005625047 362.86794854101095 949.4941218175202 374.5866980753497L949.4941218175202 374.5866980753497L949.4941218175202 407.39919677149817Q960.1061005625047 419.1179463058369 974.1686000037112 419.1179463058369ZM1088.860435724045 351.14919900667223L1104.1816156707914 351.14919900667223L1056.1998467440824 466.7741944121477L1041.833527870504 466.7741944121477L1055.2666870589405 432.0953763457157L1022.3022786466062 351.14919900667223L1037.601757205326 351.14919900667223L1062.6017562119155 414.1266270597296L1063.2310964646854 414.1266270597296L1088.860435724045 351.14919900667223ZM1204.9628616661046 400.21603733470903L1204.9628616661046 400.21603733470903Q1204.9628616661046 430.8366958401756 1164.7935924289545 430.8366958401756L1164.7935924289545 430.8366958401756L1119.9585247660957 430.8366958401756L1119.9585247660957 321.7655196187192L1163.860432743813 321.7655196187192Q1180.5705015242588 321.7655196187192 1189.7284872714642 329.4261095920925Q1198.864771630643 337.0866995654658 1198.864771630643 350.0641296053446L1198.864771630643 350.0641296053446Q1198.864771630643 367.2516289223747 1183.869112504295 373.95735782257964L1183.869112504295 373.95735782257964L1183.869112504295 374.43478835916386Q1204.9628616661046 381.1405172593688 1204.9628616661046 400.21603733470903ZM1134.172933923488 381.7698575121388L1134.172933923488 417.5554463679251L1163.3830022072286 417.5554463679251Q1178.5522724377893 417.5554463679251 1184.8673763535162 412.86794655418953Q1191.2041816572698 408.18044674045404 1191.2041816572698 399.586697081939L1191.2041816572698 399.586697081939Q1191.2041816572698 381.7698575121388 1163.5566133114412 381.7698575121388L1163.5566133114412 381.7698575121388L1134.172933923488 381.7698575121388ZM1134.172933923488 335.0467690909698L1134.172933923488 368.96603857647244L1160.106092615219 368.96603857647244Q1174.0166823402396 368.96603857647244 1179.637341839117 364.27853876273696Q1185.2580013379943 359.5910389490015 1185.2580013379943 351.6917337073361Q1185.2580013379943 343.81412985369724 1179.246716854639 339.4304494723335Q1173.2354323712837 335.0467690909698 1162.775363342485 335.0467690909698L1162.775363342485 335.0467690909698L1134.172933923488 335.0467690909698ZM1295.4142469607782 390.9929474234239L1295.4142469607782 390.9929474234239L1295.4142469607782 395.98426666953117L1235.106089634987 395.98426666953117Q1236.364770140527 406.921766234914 1243.2441101449444 413.01985627037544Q1250.1017487613353 419.1179463058369 1264.0991440384619 419.1179463058369Q1278.0748379275624 419.1179463058369 1289.945497178087 411.3054466162777L1289.945497178087 411.3054466162777L1290.7267471470427 411.3054466162777L1290.7267471470427 425.06412662511246Q1277.6191087790048 432.39919577808746 1259.8673733732842 432.39919577808746Q1242.13733935559 432.39919577808746 1231.4385550584996 421.54850176481085Q1220.7397707614086 410.6761063635077 1220.7397707614086 392.1648223768578Q1220.7397707614086 373.6535383902079 1230.2666801050657 361.6092680354709Q1239.7935894487225 349.5866990687604 1258.0878595551067 349.5866990687604Q1276.3604282734645 349.5866990687604 1285.8873376171214 361.6092680354709Q1295.4142469607782 373.6535383902079 1295.4142469607782 390.9929474234239ZM1235.106089634987 384.43912823940485L1235.106089634987 384.43912823940485L1281.199837803386 384.43912823940485Q1280.570497550616 373.17610785362376 1273.626053382119 367.4035386385606Q1266.6816092136219 361.6092680354709 1258.0878595551067 361.6092680354709Q1249.494109896592 361.6092680354709 1242.6147698921743 367.4035386385606Q1235.735429887757 373.17610785362376 1235.106089634987 384.43912823940485ZM1315.7267461536321 316.774200372612L1329.962856699051 316.774200372612L1329.962856699051 430.8366958401756L1315.7267461536321 430.8366958401756L1315.7267461536321 316.774200372612ZM1357.1329945082955 316.774200372612L1371.3691050537145 316.774200372612L1371.3691050537145 430.8366958401756L1357.1329945082955 430.8366958401756L1357.1329945082955 316.774200372612ZM1452.2935810047315 351.14919900667223L1467.614760951478 351.14919900667223L1419.6329920247688 466.7741944121477L1405.2666731511906 466.7741944121477L1418.6998323396272 432.0953763457157L1385.735423927293 351.14919900667223L1401.0566038740394 351.14919900667223L1426.0566028806286 414.1266270597296L1426.664241745372 414.1266270597296L1452.2935810047315 351.14919900667223Z " fill="#ffffff" transform="matrix(0.6161114961250859,0,0,0.6161114961250859,-29.21438317300992,58.62338339279198)"/></g></svg>